# xmcd
# Track frame offsets:
# 150
# 18132
# 39115
# 59607
# 72970
# 86235
# 98442
# 118377
# 134932
# 153445
# 171550
#
# Disc length: 2507 seconds
# Revision: 0
# Processed by: cddbd v1.5.2PL0 Copyright (c) Steve Scherf et al.
# Submitted via: VisiTrax 2.10.3.257 - For more info visit www.synapsa.com
#
DISCID=9a09c90b
DTITLE=Various Artist - KMLENATIONCOMPILATION Vol. 2
DYEAR=1900
DGENRE=Country
TTITLE0=Trick Pony - It's A Heartache
TTITLE1=Craig Morgan - Almost Home
TTITLE2=Julie Roberts - Break Down Here
TTITLE3=Gary Allan - Nothin' On But The Radio
TTITLE4=Lee Ann Womack - I Hope You Dance
TTITLE5=Carolina Rain - Workin' Hard Playin Harder
TTITLE6=Trisha Yearwood - She's In Love With The Boy
TTITLE7=SHeDAISY - Passenger Seat
TTITLE8=Blake Shelton - Austin
TTITLE9=Sugarland - Baby Girl
TTITLE10=Ryan Shupe and the Rubberband - Dream Big
EXTD=
EXTT0=
EXTT1=
EXTT2=
EXTT3=
EXTT4=
EXTT5=
EXTT6=
EXTT7=
EXTT8=
EXTT9=
EXTT10=
PLAYORDER=
